<svg id="Layer_1" data-name="Layer 1" xmlns="http://www.w3.org/2000/svg" xmlns:xlink="http://www.w3.org/1999/xlink" viewBox="0 0 598.53 114.99"><defs><style>.cls-1{fill:#fff;}.cls-2{fill:url(#linear-gradient);}</style><linearGradient id="linear-gradient" x1="212.4" y1="282.73" x2="358.17" y2="283.31" gradientUnits="userSpaceOnUse"><stop offset="0" stop-color="#f7d84c"/><stop offset="1" stop-color="#fbbb0d"/></linearGradient></defs><title>shagtoday-logo-on-blackbg</title><path class="cls-1" d="M470.84,298.34v14.58H463.2q-9.72,0-15.13-4.81c-3.61-3.2-5.41-8.52-5.41-15.92V271.85h-7.44V257.56h7.44V244h17v13.59h11.11v14.29H459.63v20.64c0,2.18.45,3.7,1.34,4.56s2.39,1.29,4.51,1.29Z" transform="translate(-122.09 -223.33)"/><path class="cls-1" d="M517.51,260.29a25.09,25.09,0,0,1,10.22,9.87,32.43,32.43,0,0,1,0,30.16,25.09,25.09,0,0,1-10.22,9.87,33.47,33.47,0,0,1-29.52,0,25,25,0,0,1-10.27-9.87,32.43,32.43,0,0,1,0-30.16A25,25,0,0,1,488,260.29a33.47,33.47,0,0,1,29.52,0Zm-22.92,14.78q-3.33,3.53-3.32,10.17c0,4.44,1.1,7.8,3.32,10.12a10.86,10.86,0,0,0,8.18,3.47,10.7,10.7,0,0,0,8.14-3.47c2.18-2.32,3.28-5.68,3.28-10.12s-1.1-7.82-3.28-10.17a10.64,10.64,0,0,0-8.14-3.52A10.8,10.8,0,0,0,494.59,275.07Z" transform="translate(-122.09 -223.33)"/><path class="cls-1" d="M568.75,258.75a16.63,16.63,0,0,1,6.64,7.83V238.5h17v73.42h-17v-10a16.66,16.66,0,0,1-6.64,7.84,20.05,20.05,0,0,1-10.92,2.88,22.37,22.37,0,0,1-12.25-3.43,23.4,23.4,0,0,1-8.53-9.87,38,38,0,0,1,0-30.21,23.44,23.44,0,0,1,8.53-9.82,22.46,22.46,0,0,1,12.25-3.43A20,20,0,0,1,568.75,258.75Zm-14.24,15.57q-3.33,3.57-3.32,9.92t3.32,9.92a12.43,12.43,0,0,0,17.56-.1q3.42-3.66,3.43-9.82c0-4.16-1.15-7.46-3.43-9.87a11.57,11.57,0,0,0-8.78-3.63A11.44,11.44,0,0,0,554.51,274.32Z" transform="translate(-122.09 -223.33)"/><path class="cls-1" d="M630.53,258.75a17.21,17.21,0,0,1,6.75,7.83v-10h16.87v55.36H637.28v-10a17.23,17.23,0,0,1-6.75,7.84,20,20,0,0,1-10.91,2.88,22.35,22.35,0,0,1-12.25-3.43,23.42,23.42,0,0,1-8.54-9.87,38.12,38.12,0,0,1,0-30.21,23.46,23.46,0,0,1,8.54-9.82,22.43,22.43,0,0,1,12.25-3.43A19.93,19.93,0,0,1,630.53,258.75ZM616.3,274.32q-3.33,3.57-3.32,9.92t3.32,9.92a12.43,12.43,0,0,0,17.56-.1q3.42-3.66,3.42-9.82c0-4.16-1.14-7.46-3.42-9.87a11.57,11.57,0,0,0-8.78-3.63A11.43,11.43,0,0,0,616.3,274.32Z" transform="translate(-122.09 -223.33)"/><path class="cls-1" d="M676.17,256.56l13.3,33.93,12.4-33.93h18.75L686.1,338.32H667.44l13-28.48-23.22-53.28Z" transform="translate(-122.09 -223.33)"/><path class="cls-2" d="M240,256.08A20.77,20.77,0,0,1,247,269.22H236.33a11.63,11.63,0,0,0-3.82-7.19,12.17,12.17,0,0,0-8.29-2.73,9.73,9.73,0,0,0-6.6,2,6.93,6.93,0,0,0-2.33,5.5A5.45,5.45,0,0,0,217,271a11.62,11.62,0,0,0,4.22,2.48,71,71,0,0,0,7.19,2,71.61,71.61,0,0,1,10,2.87,16.21,16.21,0,0,1,6.55,4.72c1.82,2.15,2.73,5.07,2.73,8.78A13.69,13.69,0,0,1,242.43,303q-5.22,4.26-14,4.26-10.23,0-16.52-4.76a19.58,19.58,0,0,1-7.59-13.29h11a10.38,10.38,0,0,0,4,7.24,14.18,14.18,0,0,0,9.13,2.78,9.1,9.1,0,0,0,6.4-2.14,7,7,0,0,0,2.33-5.4,6,6,0,0,0-1.79-4.57,12.34,12.34,0,0,0-4.46-2.62,61.9,61.9,0,0,0-7.34-1.94,81.35,81.35,0,0,1-9.68-2.78,15,15,0,0,1-6.35-4.51c-1.75-2.09-2.63-4.91-2.63-8.48a14,14,0,0,1,5.21-11.27q5.22-4.3,14.44-4.31Q234.14,251.17,240,256.08Z" transform="translate(-122.09 -223.33)"/><path class="cls-2" d="M300.3,257.12q5.76,6.15,5.76,17.56v31.85H294.75V275.87q0-7.33-3.77-11.36t-10.32-4a14.14,14.14,0,0,0-10.81,4.32q-4.08,4.32-4.07,12.65v29.07H254.47V233.11h11.31v30.76a18.33,18.33,0,0,1,7.34-9.53A21.25,21.25,0,0,1,285,251Q294.56,251,300.3,257.12Z" transform="translate(-122.09 -223.33)"/><path class="cls-2" d="M349.4,254.84a19.72,19.72,0,0,1,7.44,9.72v-12.7h11.31v54.67H356.84v-12.7a19.64,19.64,0,0,1-7.44,9.72,21.62,21.62,0,0,1-12.7,3.67A24.24,24.24,0,0,1,324,303.85a23.07,23.07,0,0,1-8.78-9.72,36.77,36.77,0,0,1,0-29.87,23.07,23.07,0,0,1,8.78-9.72,24.24,24.24,0,0,1,12.75-3.37A21.62,21.62,0,0,1,349.4,254.84ZM328.12,265.9q-4.51,4.82-4.52,13.25t4.52,13.24q4.51,4.82,12.05,4.81a16.44,16.44,0,0,0,8.54-2.23,15.93,15.93,0,0,0,6-6.3,21.79,21.79,0,0,0,0-19,15.87,15.87,0,0,0-6-6.35,16.44,16.44,0,0,0-8.54-2.23Q332.64,261.09,328.12,265.9Z" transform="translate(-122.09 -223.33)"/><path class="cls-2" d="M411.89,254.84a19.78,19.78,0,0,1,7.44,9.72v-12.7h11.31v55.27a28.56,28.56,0,0,1-3.12,13.54,23,23,0,0,1-9,9.28,27.48,27.48,0,0,1-13.89,3.37q-11.52,0-18.61-5.46a23.55,23.55,0,0,1-8.88-14.78h11.22a13.34,13.34,0,0,0,5.35,7.59,17.48,17.48,0,0,0,10.12,2.73A15.43,15.43,0,0,0,415,319.23q4.38-4.17,4.37-12.1v-13.3a19.69,19.69,0,0,1-7.44,9.72,21.62,21.62,0,0,1-12.7,3.67,24.24,24.24,0,0,1-12.75-3.37,23.07,23.07,0,0,1-8.78-9.72,36.66,36.66,0,0,1,0-29.87,23.07,23.07,0,0,1,8.78-9.72,24.24,24.24,0,0,1,12.75-3.37A21.62,21.62,0,0,1,411.89,254.84ZM390.61,265.9q-4.51,4.82-4.52,13.25t4.52,13.24q4.51,4.82,12.05,4.81a16.38,16.38,0,0,0,8.53-2.23,15.89,15.89,0,0,0,6-6.3,21.79,21.79,0,0,0,0-19,15.83,15.83,0,0,0-6-6.35,16.38,16.38,0,0,0-8.53-2.23Q395.12,261.09,390.61,265.9Z" transform="translate(-122.09 -223.33)"/><g id="surface1"><path class="cls-1" d="M141.28,333.44c-12.24-40.32,13.66-55.06,13.66-55.06-1.84,21.57,10.4,38.26,10.4,38.26,4.56-1.41,13.12-7.69,13.12-7.69,0,7.69-4.55,24.49-4.55,24.49s15.82-12.25,20.8-32.62S185.18,260,185.18,260a54.81,54.81,0,0,1-13.55,39.45,10.55,10.55,0,0,0,1.19-1.84c1.74-3.47,4.45-12.36,2.82-33.06-2.28-29-28.5-41.18-28.5-41.18,2.27,17.66-4.56,21.78-20.49,55.27S141.28,333.44,141.28,333.44Z" transform="translate(-122.09 -223.33)"/></g></svg>